{"title":"Star Wars:Episode VI:Return of the Jedi(1983)MPEG-4[DaScubaDude]","uid":14113376,"size":1354557026,"categoryP":"video","categoryS":"movies","magnet":"?xt=urn:btih:1943b2410c68f4f6ca0bd22bab0833bc7a614689&amp;dn=Star+Wars%3AEpisode+VI%3AReturn+of+the+Jedi%281983%29MPEG-4%5BDaScubaDude%5D&amp;tr=udp%3A%2F%2Ftracker.leechers-paradise.org%3A6969&amp;tr=udp%3A%2F%2Fzer0day.ch%3A1337&amp;tr=udp%3A%2F%2Fopen.demonii.com%3A1337&amp;tr=udp%3A%2F%2Ftracker.coppersurfer.tk%3A6969&amp;tr=udp%3A%2F%2Fexodus.desync.com%3A6969","seeders":0,"leechers":0,"uploader":"dascuba","files":1,"time":1459390231,"description":"Star Wars: Episode VI - Return of the Jedi (1983)\r\nPG | 2h 11min | Action, Adventure, Fantasy | 25 May 1983 (USA)\r\nAfter rescuing Han Solo from the palace of Jabba the Hutt, the rebels attempt to destroy the second Death Star, while Luke struggles to make Vader return from the dark side of the Force.\r\nDirector: Richard Marquand\r\nWriters: Lawrence Kasdan (screenplay), George Lucas (screenplay) |\r\nStars: Mark Hamill, Harrison Ford, Carrie Fisher \r\n\r\nGeneral\r\nComplete name                            : Star Wars VIRETURN_OF_THE_JEDI_Title1.mp4\r\nFormat                                   : MPEG-4\r\nFormat profile                           : Base Media\r\nCodec ID                                 : isom\r\nFile size                                : 1.26 GiB\r\nDuration                                 : 2h 14mn\r\nOverall bit rate                         : 1 341 Kbps\r\nMovie name                               : RETURN_OF_THE_JEDI\r\nGenre                                    : Science_Fiction\r\nWriting application                      : Lavf54.6.100\r\n\r\nVideo\r\nID                                       : 1\r\nFormat                                   : AVC\r\nFormat/Info                              : Advanced Video Codec\r\nFormat profile                           :   \r\nFormat settings, CABAC                   : No\r\nFormat settings, ReFrames                : 6 frames\r\nCodec ID                                 : avc1\r\nCodec ID/Info                            : Advanced Video Coding\r\nDuration                                 : 2h 14mn\r\nBit rate                                 : 1 206 Kbps\r\nWidth                                    : 720 pixels\r\nHeight                                   : 404 pixels\r\nDisplay aspect ratio                     : 16:9\r\nFrame rate mode                          : Constant\r\nFrame rate                               : 29.970 fps\r\nColor space                              : YUV\r\nChroma subsampling                       : 4:2:0\r\nBit depth                                : 8 bits\r\nScan type                                : Progressive\r\nBits/(Pixel*Frame)                       : 0.138\r\nStream size                              : 1.13 GiB (90%)\r\n\r\nAudio\r\nID                                       : 2\r\nFormat                                   : AAC\r\nFormat/Info                              : Advanced Audio Codec\r\nFormat profile                           : LC\r\nCodec ID                                 : 40\r\nDuration                                 : 2h 14mn\r\nBit rate mode                            : Constant\r\nBit rate                                 : 128 Kbps\r\nChannel(s)                               : 2 channels\r\nChannel positions                        : Front: L R\r\nSampling rate                            : 44.1 KHz\r\nCompression mode                         : Lossy\r\nStream size                              : 123 MiB (10%)","torrent":{"xt":"urn:btih:1943b2410c68f4f6ca0bd22bab0833bc7a614689","amp;dn":"Star+Wars%3AEpisode+VI%3AReturn+of+the+Jedi%281983%29MPEG-4%5BDaScubaDude%5D","amp;tr":["udp%3A%2F%2Ftracker.leechers-paradise.org%3A6969","udp%3A%2F%2Fzer0day.ch%3A1337","udp%3A%2F%2Fopen.demonii.com%3A1337","udp%3A%2F%2Ftracker.coppersurfer.tk%3A6969","udp%3A%2F%2Fexodus.desync.com%3A6969"],"infoHash":"1943b2410c68f4f6ca0bd22bab0833bc7a614689","infoHashBuffer":{"type":"Buffer","data":[25,67,178,65,12,104,244,246,202,11,210,43,171,8,51,188,122,97,70,137]},"announce":[],"urlList":[]}}